<svg aria-hidden="true" style="width:0;height:0;position:absolute;overflow:hidden" xmlns="http://www.w3.org/2000/svg"><defs><symbol id="icon-film" viewBox="0 0 32 32"><path stroke-width="2.17" stroke-linecap="round" stroke-linejoin="round" d="M26.427 2.667H5.574a2.907 2.907 0 0 0-2.907 2.907v20.853a2.908 2.908 0 0 0 2.907 2.907h20.853a2.908 2.908 0 0 0 2.907-2.907V5.574a2.908 2.908 0 0 0-2.907-2.907zm-17.094 0v26.666M22.667 2.667v26.666M2.667 16h26.666M2.667 9.334h6.666M2.667 22.666h6.666m13.334 0h6.666M22.667 9.334h6.666"/></symbol><symbol id="icon-search" viewBox="0 0 32 32"><path stroke-width="3" stroke-linecap="round" stroke-linejoin="round" d="M14.667 25.333c5.891 0 10.667-4.776 10.667-10.667S20.558 3.999 14.667 3.999 4 8.775 4 14.666s4.776 10.667 10.667 10.667z"/><path stroke-width="2" stroke-linecap="round" stroke-linejoin="round" d="m28 28-5.8-5.8"/></symbol><symbol id="icon-user" viewBox="0 0 32 32"><path d="M25.333 26.667A1.333 1.333 0 0 1 24 25.334v-1.333h-1.333a1.333 1.333 0 0 1 0-2.666H24v-1.333a1.333 1.333 0 0 1 2.666 0v1.333h1.333a1.333 1.333 0 0 1 0 2.666h-1.333v1.333c0 .736-.597 1.333-1.333 1.333z"/><path d="M20 22.667a5.338 5.338 0 0 1 3.47-4.975l.037-.012a7.947 7.947 0 0 0-3.025-1.469l-.055-.011a8 8 0 1 0-11.518.002l-.002-.002c-3.597.832-6.238 4.007-6.24 7.8v1.342c0 .366.148.698.387.939.32.307 3.307 3.053 11.613 3.053a22.832 22.832 0 0 0 9.327-1.628l-.154.055c-2.229-.665-3.828-2.691-3.84-5.092v-.001z"/></symbol><symbol id="icon-sign_out" viewBox="0 0 32 32"><path d="M6.933 13.862a.533.533 0 0 0-.533.533v3.2a.533.533 0 0 0 1.066 0v-3.2a.533.533 0 0 0-.533-.533z"/><path d="M6.991.144 1.948 2.162C.528 2.688 0 3.402 0 4.795V27.2c0 1.394.528 2.107 1.935 2.629l5.066 2.027c.251.095.502.143.749.143 1.072 0 1.85-.896 1.85-2.131V2.128C9.6.611 8.39-.383 6.991.144zm1.543 29.724c0 .636-.315 1.064-.783 1.064-.117 0-.243-.025-.363-.07L2.32 28.834c-1.006-.373-1.252-.694-1.252-1.634V4.795c0-.94.246-1.26 1.265-1.638l5.045-2.018a1.06 1.06 0 0 1 .372-.074c.469 0 .784.427.784 1.064v27.74zm2.6-26.673h7.533c.882 0 1.6.718 1.6 1.6v8a.533.533 0 0 0 1.066 0v-8a2.67 2.67 0 0 0-2.667-2.667h-7.533a.533.533 0 0 0 0 1.066zM20.8 18.662a.533.533 0 0 0-.533.533v8c0 .882-.718 1.6-1.6 1.6H11.2a.533.533 0 0 0 0 1.066h7.467a2.67 2.67 0 0 0 2.667-2.667v-8a.533.533 0 0 0-.533-.533z"/><path d="M31.96 15.791a.526.526 0 0 0-.116-.174l-5.333-5.333a.533.533 0 0 0-.754 0 .533.533 0 0 0 0 .754l4.423 4.424H12.267a.533.533 0 1 0 0 1.066H30.18l-4.423 4.423a.533.533 0 0 0 0 .754.527.527 0 0 0 .377.156h.002c.147 0 .28-.06.377-.156l5.333-5.333a.535.535 0 0 0 .114-.17l.001-.003a.524.524 0 0 0-.002-.411l.001.004z"/></symbol><symbol id="icon-delete_user" viewBox="0 0 32 32"><path d="m27.88 22 1.067-1.053a1.339 1.339 0 0 0-1.894-1.894L26 20.12l-1.053-1.067a1.339 1.339 0 0 0-1.894 1.894L24.12 22l-1.067 1.053a1.333 1.333 0 0 0 0 1.894 1.333 1.333 0 0 0 1.894 0L26 23.88l1.053 1.067a1.333 1.333 0 0 0 1.894 0 1.333 1.333 0 0 0 0-1.894z"/><path d="M19.333 22a5.983 5.983 0 0 1 2.88-5.105l.026-.015a7.361 7.361 0 0 0-1.762-.669l-.052-.011a8 8 0 1 0-11.518.002l-.002-.002c-3.597.832-6.238 4.007-6.24 7.8v1.342c0 .366.148.698.387.939.32.307 3.307 3.053 11.613 3.053a22.743 22.743 0 0 0 9.287-1.615l-.154.054c-2.585-.695-4.459-3.014-4.467-5.772V22z"/></symbol><symbol id="icon-heart" viewBox="0 0 34 32"><path d="m17.231 31.705-2.412-2.412C5.859 21.367.001 16.025.001 9.478.001 4.136 4.136.001 9.478.001c2.929 0 5.858 1.378 7.754 3.618 1.895-2.24 4.825-3.618 7.754-3.618 5.342 0 9.477 4.135 9.477 9.477 0 6.548-5.858 11.889-14.818 19.815l-2.412 2.412z"/></symbol><symbol id="icon-close-button" viewBox="0 0 32 32"><path stroke-width="2.133" d="m8.533 8.533 14.933 14.933m-14.933.001L23.466 8.534"/></symbol></defs></svg>