<svg aria-hidden="true" style="position: absolute; width: 0; height: 0; overflow: hidden;"
    xmlns="http://www.w3.org/2000/svg">
    <defs>
        <symbol id="icon-film" viewBox="0 0 32 32">
            <path stroke-width="2.1695" stroke-miterlimit="4" stroke-linecap="round"
                stroke-linejoin="round"
                d="M26.427 2.667h-20.853c-1.605 0-2.907 1.301-2.907 2.907v20.853c0 1.605 1.302 2.907 2.907 2.907h20.853c1.605 0 2.907-1.302 2.907-2.907v-20.853c0-1.605-1.302-2.907-2.907-2.907zM9.333 2.667v26.666M22.667 2.667v26.666M2.667 16h26.666M2.667 9.334h6.666M2.667 22.666h6.666M22.667 22.666h6.666M22.667 9.334h6.666"></path>
        </symbol>
        <symbol id="icon-search" viewBox="0 0 32 32">
            <path stroke-width="2" stroke-miterlimit="4" stroke-linecap="round"
                stroke-linejoin="round"
                d="M14.667 25.333c5.891 0 10.667-4.776 10.667-10.667s-4.776-10.667-10.667-10.667c-5.891 0-10.667 4.776-10.667 10.667s4.776 10.667 10.667 10.667z"></path>
            <path stroke-width="2" stroke-miterlimit="4" stroke-linecap="round"
                stroke-linejoin="round" d="M28 28l-5.8-5.8"></path>
        </symbol>
        <symbol id="icon-user" viewBox="0 0 32 32">
            <path stroke-width="2" stroke-miterlimit="10" stroke-linecap="round"
                stroke-linejoin="round"
                d="M30 16c0 7.732-6.268 14-14 14s-14-6.268-14-14c0-7.732 6.268-14 14-14s14 6.268 14 14z"></path>
            <path stroke-width="2" stroke-miterlimit="10" stroke-linecap="round"
                stroke-linejoin="round"
                d="M21 13c0 2.761-2.239 5-5 5s-5-2.239-5-5c0-2.761 2.239-5 5-5s5 2.239 5 5z"></path>
            <path stroke-width="2" stroke-miterlimit="10" stroke-linecap="round"
                stroke-linejoin="round" d="M5.4 25.1c1.8-4.1 5.8-7 10.6-7s8.9 2.9 10.6 7"></path>
        </symbol>
        <symbol id="icon-heart" viewBox="0 0 34 32">
            <path d="M17.231 31.705l-2.412-2.412c-8.96-7.926-14.818-13.268-14.818-19.815 0-5.342 4.135-9.477 9.477-9.477 2.929 0 5.858 1.378 7.754 3.618 1.895-2.24 4.825-3.618 7.754-3.618 5.342 0 9.477 4.135 9.477 9.477 0 6.548-5.858 11.889-14.818 19.815l-2.412 2.412z"></path>
        </symbol>
        <symbol id="icon-close-button" viewBox="0 0 32 32">
            <path stroke-linejoin="miter" stroke-linecap="butt" stroke-miterlimit="4" stroke-width="2.1333" d="M8.533 8.533l14.933 14.933M8.533 23.467l14.933-14.933"></path>
        </symbol>
    </defs>
</svg>