<svg aria-hidden="true" style="position: absolute; width: 0; height: 0; overflow: hidden;"
    xmlns="http://www.w3.org/2000/svg">
    <defs>
        <symbol id="icon-film" viewBox="0 0 32 32">
            <path stroke-width="2.1695" stroke-miterlimit="4" stroke-linecap="round"
                stroke-linejoin="round"
                d="M26.427 2.667h-20.853c-1.605 0-2.907 1.301-2.907 2.907v20.853c0 1.605 1.302 2.907 2.907 2.907h20.853c1.605 0 2.907-1.302 2.907-2.907v-20.853c0-1.605-1.302-2.907-2.907-2.907zM9.333 2.667v26.666M22.667 2.667v26.666M2.667 16h26.666M2.667 9.334h6.666M2.667 22.666h6.666M22.667 22.666h6.666M22.667 9.334h6.666"></path>
        </symbol>
        <symbol id="icon-search" viewBox="0 0 32 32">
            <path stroke-width="2" stroke-miterlimit="4" stroke-linecap="round"
                stroke-linejoin="round"
                d="M14.667 25.333c5.891 0 10.667-4.776 10.667-10.667s-4.776-10.667-10.667-10.667c-5.891 0-10.667 4.776-10.667 10.667s4.776 10.667 10.667 10.667z"></path>
            <path stroke-width="2" stroke-miterlimit="4" stroke-linecap="round"
                stroke-linejoin="round" d="M28 28l-5.8-5.8"></path>
        </symbol>
        <symbol id="icon-user" viewBox="0 0 32 32">
            <path
                d="M25.333 26.667c-0.736 0-1.333-0.597-1.333-1.333v0-1.333h-1.333c-0.736 0-1.333-0.597-1.333-1.333s0.597-1.333 1.333-1.333v0h1.333v-1.333c0-0.736 0.597-1.333 1.333-1.333s1.333 0.597 1.333 1.333v0 1.333h1.333c0.736 0 1.333 0.597 1.333 1.333s-0.597 1.333-1.333 1.333v0h-1.333v1.333c0 0.736-0.597 1.333-1.333 1.333v0z"></path>
            <path
                d="M20 22.667c0.011-2.28 1.451-4.222 3.47-4.975l0.037-0.012c-0.866-0.682-1.899-1.194-3.025-1.469l-0.055-0.011c1.386-1.437 2.24-3.394 2.24-5.552 0-4.418-3.582-8-8-8s-8 3.582-8 8c0 2.157 0.854 4.115 2.242 5.554l-0.002-0.002c-3.597 0.832-6.238 4.007-6.24 7.8v1.334c0 0.002-0 0.005-0 0.008 0 0.366 0.148 0.698 0.387 0.939l-0-0c0.32 0.307 3.307 3.053 11.613 3.053 0.238 0.009 0.517 0.014 0.797 0.014 3.015 0 5.894-0.583 8.53-1.642l-0.154 0.055c-2.229-0.665-3.828-2.691-3.84-5.092v-0.001z"></path>
        </symbol>
        <symbol id="icon-sign_out" viewBox="0 0 32 32">
            <path
                d="M6.933 13.862c-0.295 0-0.533 0.239-0.533 0.533v0 3.2c0 0.294 0.239 0.533 0.533 0.533s0.533-0.239 0.533-0.533v-3.2c0-0.294-0.239-0.533-0.533-0.533z"></path>
            <path
                d="M6.991 0.144l-5.043 2.018c-1.42 0.526-1.948 1.24-1.948 2.633v22.405c0 1.394 0.528 2.107 1.935 2.629l5.066 2.027c0.251 0.095 0.502 0.143 0.749 0.143 1.072 0 1.85-0.896 1.85-2.131v-27.74c0-1.517-1.21-2.511-2.609-1.984zM8.534 29.868c0 0.636-0.315 1.064-0.783 1.064-0.117 0-0.243-0.025-0.363-0.070l-5.068-2.028c-1.006-0.373-1.252-0.694-1.252-1.634v-22.405c0-0.94 0.246-1.26 1.265-1.638l5.045-2.018c0.13-0.049 0.255-0.074 0.372-0.074 0.469 0 0.784 0.427 0.784 1.064v27.74zM11.134 3.195h7.533c0.882 0 1.6 0.718 1.6 1.6v8c0 0 0 0 0 0 0 0.294 0.239 0.533 0.533 0.533 0 0 0 0 0 0v0c0 0 0 0 0 0 0.294 0 0.533-0.239 0.533-0.533 0-0 0-0 0-0v0-8c0-1.47-1.196-2.667-2.667-2.667h-7.533c-0.294 0-0.533 0.239-0.533 0.533s0.239 0.533 0.533 0.533zM20.8 18.662c-0 0-0 0-0 0-0.294 0-0.533 0.239-0.533 0.533 0 0 0 0 0 0v0 8c0 0.882-0.718 1.6-1.6 1.6h-7.467c-0.294 0-0.533 0.239-0.533 0.533s0.239 0.533 0.533 0.533h7.467c1.47 0 2.667-1.196 2.667-2.667v-8c0-0.294-0.239-0.533-0.533-0.533-0 0-0 0-0 0v0z"></path>
            <path
                d="M31.96 15.791c-0.028-0.068-0.067-0.125-0.116-0.174v0l-5.333-5.333c-0.096-0.097-0.23-0.156-0.377-0.156s-0.281 0.060-0.377 0.156v0c-0.097 0.096-0.156 0.23-0.156 0.377s0.060 0.281 0.156 0.377v0l4.423 4.424h-17.913c-0.294 0-0.533 0.239-0.533 0.533v0c0 0.295 0.239 0.533 0.533 0.533h17.913l-4.423 4.423c-0.097 0.096-0.156 0.23-0.156 0.377s0.060 0.281 0.156 0.377v0c0.096 0.097 0.229 0.156 0.377 0.156 0 0 0 0 0.001 0h-0c0 0 0 0 0.001 0 0.147 0 0.28-0.060 0.377-0.156v0l5.333-5.333c0.048-0.048 0.087-0.106 0.114-0.17l0.001-0.003c0.026-0.060 0.040-0.13 0.040-0.204s-0.015-0.144-0.042-0.207l0.001 0.004z"></path>
        </symbol>
        <symbol id="icon-delete_user" viewBox="0 0 32 32">
            <path
                d="M27.88 22l1.067-1.053c0.242-0.242 0.392-0.577 0.392-0.947 0-0.739-0.599-1.339-1.339-1.339-0.37 0-0.704 0.15-0.947 0.392v0l-1.053 1.067-1.053-1.067c-0.242-0.242-0.577-0.392-0.947-0.392-0.739 0-1.339 0.599-1.339 1.339 0 0.37 0.15 0.704 0.392 0.947v0l1.067 1.053-1.067 1.053c-0.244 0.242-0.394 0.577-0.394 0.947s0.151 0.705 0.394 0.947l0 0c0.242 0.244 0.577 0.394 0.947 0.394s0.705-0.151 0.947-0.394l0-0 1.053-1.067 1.053 1.067c0.242 0.244 0.577 0.394 0.947 0.394s0.705-0.151 0.947-0.394l0-0c0.244-0.242 0.394-0.577 0.394-0.947s-0.151-0.705-0.394-0.947l-0-0z"></path>
            <path
                d="M19.333 22c0.005-2.164 1.157-4.057 2.88-5.105l0.026-0.015c-0.521-0.282-1.126-0.516-1.762-0.669l-0.052-0.011c1.386-1.437 2.24-3.394 2.24-5.552 0-4.418-3.582-8-8-8s-8 3.582-8 8c0 2.157 0.854 4.115 2.242 5.554l-0.002-0.002c-3.597 0.832-6.238 4.007-6.24 7.8v1.334c0 0.002-0 0.005-0 0.008 0 0.366 0.148 0.698 0.387 0.939l-0-0c0.32 0.307 3.307 3.053 11.613 3.053 0.24 0.009 0.522 0.014 0.806 0.014 2.997 0 5.859-0.578 8.481-1.629l-0.154 0.054c-2.585-0.695-4.459-3.014-4.467-5.772v-0.001z"></path>
        </symbol>
    </defs>
</svg>